<mxfile host="app.diagrams.net" modified="2023-12-03T08:27:12.175Z" agent="Mozilla/5.0 (Windows NT 10.0; Win64; x64) AppleWebKit/537.36 (KHTML, like Gecko) Chrome/119.0.0.0 Safari/537.36" etag="uTgX-AFj_2u_pOo59Kgm" version="22.1.5" type="device">
  <diagram name="Page-1" id="9f46799a-70d6-7492-0946-bef42562c5a5">
    <mxGraphModel dx="1687" dy="1742" grid="1" gridSize="10" guides="1" tooltips="1" connect="1" arrows="1" fold="1" page="1" pageScale="1" pageWidth="1100" pageHeight="850" background="none" math="0" shadow="0">
      <root>
        <mxCell id="0" />
        <mxCell id="1" parent="0" />
        <mxCell id="bU3cXBvAo1TJFP_Xiqjj-13" value="" style="rounded=0;whiteSpace=wrap;html=1;strokeColor=default;" vertex="1" parent="1">
          <mxGeometry x="80" y="490" width="200" height="150" as="geometry" />
        </mxCell>
        <mxCell id="bU3cXBvAo1TJFP_Xiqjj-5" value="AWS Cloud" style="points=[[0,0],[0.25,0],[0.5,0],[0.75,0],[1,0],[1,0.25],[1,0.5],[1,0.75],[1,1],[0.75,1],[0.5,1],[0.25,1],[0,1],[0,0.75],[0,0.5],[0,0.25]];outlineConnect=0;gradientColor=none;html=1;whiteSpace=wrap;fontSize=12;fontStyle=0;container=1;pointerEvents=0;collapsible=0;recursiveResize=0;shape=mxgraph.aws4.group;grIcon=mxgraph.aws4.group_aws_cloud_alt;strokeColor=#232F3E;fillColor=none;verticalAlign=top;align=left;spacingLeft=30;fontColor=#232F3E;dashed=0;" vertex="1" parent="1">
          <mxGeometry x="320" y="40" width="520" height="600" as="geometry" />
        </mxCell>
        <mxCell id="bU3cXBvAo1TJFP_Xiqjj-24" value="" style="sketch=0;outlineConnect=0;fontColor=#232F3E;gradientColor=none;strokeColor=#ffffff;fillColor=#232F3E;dashed=0;verticalLabelPosition=middle;verticalAlign=bottom;align=center;html=1;whiteSpace=wrap;fontSize=10;fontStyle=1;spacing=3;shape=mxgraph.aws4.productIcon;prIcon=mxgraph.aws4.route_53;" vertex="1" parent="bU3cXBvAo1TJFP_Xiqjj-5">
          <mxGeometry x="235" y="-30" width="80" height="110" as="geometry" />
        </mxCell>
        <mxCell id="bU3cXBvAo1TJFP_Xiqjj-6" value="VPC" style="points=[[0,0],[0.25,0],[0.5,0],[0.75,0],[1,0],[1,0.25],[1,0.5],[1,0.75],[1,1],[0.75,1],[0.5,1],[0.25,1],[0,1],[0,0.75],[0,0.5],[0,0.25]];outlineConnect=0;gradientColor=none;html=1;whiteSpace=wrap;fontSize=12;fontStyle=0;container=1;pointerEvents=0;collapsible=0;recursiveResize=0;shape=mxgraph.aws4.group;grIcon=mxgraph.aws4.group_vpc2;strokeColor=#8C4FFF;fillColor=none;verticalAlign=top;align=left;spacingLeft=30;fontColor=#AAB7B8;dashed=0;" vertex="1" parent="bU3cXBvAo1TJFP_Xiqjj-5">
          <mxGeometry x="50" y="120" width="450" height="460" as="geometry" />
        </mxCell>
        <mxCell id="bU3cXBvAo1TJFP_Xiqjj-8" value="Public subnet" style="points=[[0,0],[0.25,0],[0.5,0],[0.75,0],[1,0],[1,0.25],[1,0.5],[1,0.75],[1,1],[0.75,1],[0.5,1],[0.25,1],[0,1],[0,0.75],[0,0.5],[0,0.25]];outlineConnect=0;gradientColor=none;html=1;whiteSpace=wrap;fontSize=12;fontStyle=0;container=1;pointerEvents=0;collapsible=0;recursiveResize=0;shape=mxgraph.aws4.group;grIcon=mxgraph.aws4.group_security_group;grStroke=0;strokeColor=#7AA116;fillColor=#F2F6E8;verticalAlign=top;align=left;spacingLeft=30;fontColor=#248814;dashed=0;" vertex="1" parent="bU3cXBvAo1TJFP_Xiqjj-6">
          <mxGeometry x="30" y="160" width="390" height="135" as="geometry" />
        </mxCell>
        <mxCell id="bU3cXBvAo1TJFP_Xiqjj-10" value="" style="sketch=0;points=[[0,0,0],[0.25,0,0],[0.5,0,0],[0.75,0,0],[1,0,0],[0,1,0],[0.25,1,0],[0.5,1,0],[0.75,1,0],[1,1,0],[0,0.25,0],[0,0.5,0],[0,0.75,0],[1,0.25,0],[1,0.5,0],[1,0.75,0]];outlineConnect=0;fontColor=#232F3E;fillColor=#ED7100;strokeColor=#ffffff;dashed=0;verticalLabelPosition=bottom;verticalAlign=top;align=center;html=1;fontSize=12;fontStyle=0;aspect=fixed;shape=mxgraph.aws4.resourceIcon;resIcon=mxgraph.aws4.ec2;" vertex="1" parent="bU3cXBvAo1TJFP_Xiqjj-8">
          <mxGeometry x="156" y="20" width="78" height="78" as="geometry" />
        </mxCell>
        <mxCell id="bU3cXBvAo1TJFP_Xiqjj-20" value="EC2" style="text;html=1;strokeColor=none;fillColor=none;align=center;verticalAlign=middle;whiteSpace=wrap;rounded=0;fontStyle=1;fontSize=16;" vertex="1" parent="bU3cXBvAo1TJFP_Xiqjj-8">
          <mxGeometry x="165" y="98" width="60" height="30" as="geometry" />
        </mxCell>
        <mxCell id="bU3cXBvAo1TJFP_Xiqjj-54" value="" style="endArrow=classic;html=1;rounded=0;" edge="1" parent="bU3cXBvAo1TJFP_Xiqjj-8">
          <mxGeometry width="50" height="50" relative="1" as="geometry">
            <mxPoint x="195" y="-14" as="sourcePoint" />
            <mxPoint x="195" y="16" as="targetPoint" />
            <Array as="points" />
          </mxGeometry>
        </mxCell>
        <mxCell id="bU3cXBvAo1TJFP_Xiqjj-9" value="Private subnet" style="points=[[0,0],[0.25,0],[0.5,0],[0.75,0],[1,0],[1,0.25],[1,0.5],[1,0.75],[1,1],[0.75,1],[0.5,1],[0.25,1],[0,1],[0,0.75],[0,0.5],[0,0.25]];outlineConnect=0;gradientColor=none;html=1;whiteSpace=wrap;fontSize=12;fontStyle=0;container=1;pointerEvents=0;collapsible=0;recursiveResize=0;shape=mxgraph.aws4.group;grIcon=mxgraph.aws4.group_security_group;grStroke=0;strokeColor=#00A4A6;fillColor=#E6F6F7;verticalAlign=top;align=left;spacingLeft=30;fontColor=#147EBA;dashed=0;" vertex="1" parent="bU3cXBvAo1TJFP_Xiqjj-6">
          <mxGeometry x="30" y="310" width="390" height="130" as="geometry" />
        </mxCell>
        <mxCell id="bU3cXBvAo1TJFP_Xiqjj-11" value="" style="sketch=0;points=[[0,0,0],[0.25,0,0],[0.5,0,0],[0.75,0,0],[1,0,0],[0,1,0],[0.25,1,0],[0.5,1,0],[0.75,1,0],[1,1,0],[0,0.25,0],[0,0.5,0],[0,0.75,0],[1,0.25,0],[1,0.5,0],[1,0.75,0]];outlineConnect=0;fontColor=#232F3E;fillColor=#C925D1;strokeColor=#ffffff;dashed=0;verticalLabelPosition=bottom;verticalAlign=top;align=center;html=1;fontSize=12;fontStyle=0;aspect=fixed;shape=mxgraph.aws4.resourceIcon;resIcon=mxgraph.aws4.rds;" vertex="1" parent="bU3cXBvAo1TJFP_Xiqjj-9">
          <mxGeometry x="156" y="19.21" width="78" height="78" as="geometry" />
        </mxCell>
        <mxCell id="bU3cXBvAo1TJFP_Xiqjj-21" value="RDS" style="text;html=1;strokeColor=none;fillColor=none;align=center;verticalAlign=middle;whiteSpace=wrap;rounded=0;fontStyle=1;fontSize=16;" vertex="1" parent="bU3cXBvAo1TJFP_Xiqjj-9">
          <mxGeometry x="165" y="97.21000000000004" width="60" height="30" as="geometry" />
        </mxCell>
        <mxCell id="bU3cXBvAo1TJFP_Xiqjj-34" value="" style="sketch=0;outlineConnect=0;fontColor=#232F3E;gradientColor=none;fillColor=#8C4FFF;strokeColor=none;dashed=0;verticalLabelPosition=bottom;verticalAlign=top;align=center;html=1;fontSize=12;fontStyle=0;aspect=fixed;pointerEvents=1;shape=mxgraph.aws4.application_load_balancer;" vertex="1" parent="bU3cXBvAo1TJFP_Xiqjj-6">
          <mxGeometry x="186" y="40" width="78" height="78" as="geometry" />
        </mxCell>
        <mxCell id="bU3cXBvAo1TJFP_Xiqjj-30" value="" style="sketch=0;points=[[0,0,0],[0.25,0,0],[0.5,0,0],[0.75,0,0],[1,0,0],[0,1,0],[0.25,1,0],[0.5,1,0],[0.75,1,0],[1,1,0],[0,0.25,0],[0,0.5,0],[0,0.75,0],[1,0.25,0],[1,0.5,0],[1,0.75,0]];outlineConnect=0;fontColor=#232F3E;fillColor=#DD344C;strokeColor=#ffffff;dashed=0;verticalLabelPosition=bottom;verticalAlign=top;align=center;html=1;fontSize=12;fontStyle=0;aspect=fixed;shape=mxgraph.aws4.resourceIcon;resIcon=mxgraph.aws4.certificate_manager_3;" vertex="1" parent="bU3cXBvAo1TJFP_Xiqjj-6">
          <mxGeometry x="291" y="40" width="78" height="78" as="geometry" />
        </mxCell>
        <mxCell id="bU3cXBvAo1TJFP_Xiqjj-31" value="ACM" style="text;html=1;strokeColor=none;fillColor=none;align=center;verticalAlign=middle;whiteSpace=wrap;rounded=0;fontStyle=1;fontSize=16;" vertex="1" parent="bU3cXBvAo1TJFP_Xiqjj-6">
          <mxGeometry x="290" y="118" width="77.1" height="30" as="geometry" />
        </mxCell>
        <mxCell id="bU3cXBvAo1TJFP_Xiqjj-35" value="ALB" style="text;html=1;strokeColor=none;fillColor=none;align=center;verticalAlign=middle;whiteSpace=wrap;rounded=0;fontStyle=1;fontSize=16;" vertex="1" parent="bU3cXBvAo1TJFP_Xiqjj-6">
          <mxGeometry x="186.89999999999998" y="118" width="77.1" height="30" as="geometry" />
        </mxCell>
        <mxCell id="bU3cXBvAo1TJFP_Xiqjj-55" value="" style="endArrow=classic;html=1;rounded=0;" edge="1" parent="bU3cXBvAo1TJFP_Xiqjj-6" target="bU3cXBvAo1TJFP_Xiqjj-11">
          <mxGeometry width="50" height="50" relative="1" as="geometry">
            <mxPoint x="225.21000000000004" y="280" as="sourcePoint" />
            <mxPoint x="225.21000000000004" y="310" as="targetPoint" />
            <Array as="points" />
          </mxGeometry>
        </mxCell>
        <mxCell id="bU3cXBvAo1TJFP_Xiqjj-25" value="Route 53" style="text;html=1;strokeColor=none;fillColor=none;align=center;verticalAlign=middle;whiteSpace=wrap;rounded=0;fontStyle=1;fontSize=16;" vertex="1" parent="bU3cXBvAo1TJFP_Xiqjj-5">
          <mxGeometry x="320" width="77.1" height="30" as="geometry" />
        </mxCell>
        <mxCell id="bU3cXBvAo1TJFP_Xiqjj-36" value="" style="sketch=0;outlineConnect=0;fontColor=#232F3E;gradientColor=none;fillColor=#8C4FFF;strokeColor=none;dashed=0;verticalLabelPosition=bottom;verticalAlign=top;align=center;html=1;fontSize=12;fontStyle=0;aspect=fixed;pointerEvents=1;shape=mxgraph.aws4.internet_gateway;" vertex="1" parent="bU3cXBvAo1TJFP_Xiqjj-5">
          <mxGeometry x="236" y="70" width="78" height="78" as="geometry" />
        </mxCell>
        <mxCell id="bU3cXBvAo1TJFP_Xiqjj-39" value="Internet Gateway" style="text;html=1;strokeColor=none;fillColor=none;align=center;verticalAlign=middle;whiteSpace=wrap;rounded=0;fontStyle=1;fontSize=16;" vertex="1" parent="bU3cXBvAo1TJFP_Xiqjj-5">
          <mxGeometry x="307" y="94" width="166" height="30" as="geometry" />
        </mxCell>
        <mxCell id="bU3cXBvAo1TJFP_Xiqjj-41" value="" style="endArrow=classic;html=1;rounded=0;" edge="1" parent="bU3cXBvAo1TJFP_Xiqjj-5">
          <mxGeometry width="50" height="50" relative="1" as="geometry">
            <mxPoint x="277" y="49" as="sourcePoint" />
            <mxPoint x="277" y="70" as="targetPoint" />
          </mxGeometry>
        </mxCell>
        <mxCell id="bU3cXBvAo1TJFP_Xiqjj-42" value="" style="endArrow=classic;html=1;rounded=0;" edge="1" parent="bU3cXBvAo1TJFP_Xiqjj-5" source="bU3cXBvAo1TJFP_Xiqjj-36">
          <mxGeometry width="50" height="50" relative="1" as="geometry">
            <mxPoint x="274.88" y="140" as="sourcePoint" />
            <mxPoint x="274.88" y="161" as="targetPoint" />
          </mxGeometry>
        </mxCell>
        <mxCell id="bU3cXBvAo1TJFP_Xiqjj-12" value="" style="image;sketch=0;aspect=fixed;html=1;points=[];align=center;fontSize=12;image=img/lib/mscae/Docker.svg;" vertex="1" parent="1">
          <mxGeometry x="105" y="522.21" width="80" height="65.59" as="geometry" />
        </mxCell>
        <mxCell id="bU3cXBvAo1TJFP_Xiqjj-14" value="" style="sketch=0;outlineConnect=0;fontColor=#232F3E;gradientColor=none;fillColor=#232F3D;strokeColor=none;dashed=0;verticalLabelPosition=bottom;verticalAlign=top;align=center;html=1;fontSize=12;fontStyle=0;aspect=fixed;pointerEvents=1;shape=mxgraph.aws4.user;" vertex="1" parent="1">
          <mxGeometry x="202" y="529.55" width="50.9" height="50.9" as="geometry" />
        </mxCell>
        <mxCell id="bU3cXBvAo1TJFP_Xiqjj-15" value="開発環境" style="text;html=1;strokeColor=none;fillColor=none;align=center;verticalAlign=middle;whiteSpace=wrap;rounded=0;fontSize=16;fontStyle=1" vertex="1" parent="1">
          <mxGeometry x="130" y="602" width="100" height="30" as="geometry" />
        </mxCell>
        <mxCell id="bU3cXBvAo1TJFP_Xiqjj-16" value="" style="dashed=0;outlineConnect=0;html=1;align=center;labelPosition=center;verticalLabelPosition=bottom;verticalAlign=top;shape=mxgraph.weblogos.github" vertex="1" parent="1">
          <mxGeometry x="142.5" y="305" width="75" height="75" as="geometry" />
        </mxCell>
        <mxCell id="bU3cXBvAo1TJFP_Xiqjj-17" value="" style="endArrow=classic;html=1;rounded=0;strokeWidth=2;" edge="1" parent="1">
          <mxGeometry width="50" height="50" relative="1" as="geometry">
            <mxPoint x="218" y="345" as="sourcePoint" />
            <mxPoint x="400" y="345" as="targetPoint" />
          </mxGeometry>
        </mxCell>
        <mxCell id="bU3cXBvAo1TJFP_Xiqjj-18" value="" style="endArrow=classic;html=1;rounded=0;strokeWidth=2;exitX=0.5;exitY=0;exitDx=0;exitDy=0;" edge="1" parent="1" source="bU3cXBvAo1TJFP_Xiqjj-13" target="bU3cXBvAo1TJFP_Xiqjj-16">
          <mxGeometry width="50" height="50" relative="1" as="geometry">
            <mxPoint x="142.5" y="490" as="sourcePoint" />
            <mxPoint x="180" y="380" as="targetPoint" />
          </mxGeometry>
        </mxCell>
        <mxCell id="bU3cXBvAo1TJFP_Xiqjj-19" value="GitHub" style="text;html=1;strokeColor=none;fillColor=none;align=center;verticalAlign=middle;whiteSpace=wrap;rounded=0;fontStyle=1;fontSize=16;" vertex="1" parent="1">
          <mxGeometry x="150" y="270" width="60" height="30" as="geometry" />
        </mxCell>
        <mxCell id="bU3cXBvAo1TJFP_Xiqjj-22" value="git push" style="text;html=1;strokeColor=none;fillColor=none;align=center;verticalAlign=middle;whiteSpace=wrap;rounded=0;fontStyle=1;fontSize=16;" vertex="1" parent="1">
          <mxGeometry x="192.9" y="425" width="77.1" height="30" as="geometry" />
        </mxCell>
        <mxCell id="bU3cXBvAo1TJFP_Xiqjj-23" value="git pull" style="text;html=1;strokeColor=none;fillColor=none;align=center;verticalAlign=middle;whiteSpace=wrap;rounded=0;fontStyle=1;fontSize=16;" vertex="1" parent="1">
          <mxGeometry x="230" y="305" width="77.1" height="30" as="geometry" />
        </mxCell>
        <mxCell id="bU3cXBvAo1TJFP_Xiqjj-28" value="CloudFormation" style="text;html=1;strokeColor=none;fillColor=none;align=center;verticalAlign=middle;whiteSpace=wrap;rounded=0;fontStyle=1;fontSize=16;" vertex="1" parent="1">
          <mxGeometry x="209.99999999999997" y="118" width="77.1" height="30" as="geometry" />
        </mxCell>
        <mxCell id="bU3cXBvAo1TJFP_Xiqjj-27" value="" style="sketch=0;points=[[0,0,0],[0.25,0,0],[0.5,0,0],[0.75,0,0],[1,0,0],[0,1,0],[0.25,1,0],[0.5,1,0],[0.75,1,0],[1,1,0],[0,0.25,0],[0,0.5,0],[0,0.75,0],[1,0.25,0],[1,0.5,0],[1,0.75,0]];points=[[0,0,0],[0.25,0,0],[0.5,0,0],[0.75,0,0],[1,0,0],[0,1,0],[0.25,1,0],[0.5,1,0],[0.75,1,0],[1,1,0],[0,0.25,0],[0,0.5,0],[0,0.75,0],[1,0.25,0],[1,0.5,0],[1,0.75,0]];outlineConnect=0;fontColor=#232F3E;fillColor=#E7157B;strokeColor=#ffffff;dashed=0;verticalLabelPosition=bottom;verticalAlign=top;align=center;html=1;fontSize=12;fontStyle=0;aspect=fixed;shape=mxgraph.aws4.resourceIcon;resIcon=mxgraph.aws4.cloudformation;" vertex="1" parent="1">
          <mxGeometry x="210" y="40" width="78" height="78" as="geometry" />
        </mxCell>
        <mxCell id="bU3cXBvAo1TJFP_Xiqjj-56" value="" style="sketch=0;outlineConnect=0;fontColor=#232F3E;gradientColor=none;fillColor=#232F3D;strokeColor=none;dashed=0;verticalLabelPosition=bottom;verticalAlign=top;align=center;html=1;fontSize=12;fontStyle=0;aspect=fixed;pointerEvents=1;shape=mxgraph.aws4.user;" vertex="1" parent="1">
          <mxGeometry x="639" y="-90" width="78" height="78" as="geometry" />
        </mxCell>
        <mxCell id="bU3cXBvAo1TJFP_Xiqjj-57" value="" style="sketch=0;outlineConnect=0;fontColor=#232F3E;gradientColor=none;fillColor=#232F3D;strokeColor=none;dashed=0;verticalLabelPosition=bottom;verticalAlign=top;align=center;html=1;fontSize=12;fontStyle=0;aspect=fixed;pointerEvents=1;shape=mxgraph.aws4.user;labelBackgroundColor=default;" vertex="1" parent="1">
          <mxGeometry x="700" y="-90" width="78" height="78" as="geometry" />
        </mxCell>
        <mxCell id="bU3cXBvAo1TJFP_Xiqjj-58" value="" style="sketch=0;outlineConnect=0;fontColor=#232F3E;gradientColor=none;fillColor=#232F3D;strokeColor=none;dashed=0;verticalLabelPosition=bottom;verticalAlign=top;align=center;html=1;fontSize=12;fontStyle=0;aspect=fixed;pointerEvents=1;shape=mxgraph.aws4.user;labelBackgroundColor=default;" vertex="1" parent="1">
          <mxGeometry x="762" y="-90" width="78" height="78" as="geometry" />
        </mxCell>
        <mxCell id="bU3cXBvAo1TJFP_Xiqjj-59" value="ユーザー" style="text;html=1;strokeColor=none;fillColor=none;align=center;verticalAlign=middle;whiteSpace=wrap;rounded=0;fontStyle=1;fontSize=16;" vertex="1" parent="1">
          <mxGeometry x="700.9" y="-10" width="77.1" height="30" as="geometry" />
        </mxCell>
        <mxCell id="bU3cXBvAo1TJFP_Xiqjj-60" value="" style="endArrow=classic;html=1;rounded=0;" edge="1" parent="1" source="bU3cXBvAo1TJFP_Xiqjj-56" target="bU3cXBvAo1TJFP_Xiqjj-24">
          <mxGeometry width="50" height="50" relative="1" as="geometry">
            <mxPoint x="370" y="310" as="sourcePoint" />
            <mxPoint x="420" y="260" as="targetPoint" />
            <Array as="points">
              <mxPoint x="595" y="-50" />
            </Array>
          </mxGeometry>
        </mxCell>
      </root>
    </mxGraphModel>
  </diagram>
</mxfile>
